<?xml version="1.0" encoding="UTF-8" standalone="no"?>
<!DOCTYPE svg PUBLIC "-//W3C//DTD SVG 1.1//EN"
 "http://www.w3.org/Graphics/SVG/1.1/DTD/svg11.dtd">
<!-- Generated by graphviz version 2.38.0 (20140413.2041)
 -->
<!-- Title: BTree Pages: 1 -->
<svg width="1891pt" height="149pt"
 viewBox="0.00 0.00 1891.31 149.00" xmlns="http://www.w3.org/2000/svg" xmlns:xlink="http://www.w3.org/1999/xlink">
<g id="graph0" class="graph" transform="scale(1 1) rotate(0) translate(4 145)">
<title>BTree</title>
<polygon fill="white" stroke="none" points="-4,4 -4,-145 1887.31,-145 1887.31,4 -4,4"/>
<!-- node1 -->
<g id="node1" class="node"><title>node1</title>
<polygon fill="none" stroke="black" points="1004.94,-118.5 1004.94,-140.5 1067.73,-140.5 1067.73,-118.5 1004.94,-118.5"/>
<text text-anchor="middle" x="1014.69" y="-125.3" font-family="Times,serif" font-size="14.00"> </text>
<polyline fill="none" stroke="black" points="1024.44,-118.5 1024.44,-140.5 "/>
<text text-anchor="middle" x="1036.34" y="-125.3" font-family="Times,serif" font-size="14.00">P</text>
<polyline fill="none" stroke="black" points="1048.23,-118.5 1048.23,-140.5 "/>
<text text-anchor="middle" x="1057.98" y="-125.3" font-family="Times,serif" font-size="14.00"> </text>
</g>
<!-- node2 -->
<g id="node2" class="node"><title>node2</title>
<polygon fill="none" stroke="black" points="655.388,-59.5 655.388,-81.5 813.285,-81.5 813.285,-59.5 655.388,-59.5"/>
<text text-anchor="middle" x="665.138" y="-66.3" font-family="Times,serif" font-size="14.00"> </text>
<polyline fill="none" stroke="black" points="674.888,-59.5 674.888,-81.5 "/>
<text text-anchor="middle" x="687.557" y="-66.3" font-family="Times,serif" font-size="14.00">C</text>
<polyline fill="none" stroke="black" points="700.226,-59.5 700.226,-81.5 "/>
<text text-anchor="middle" x="709.976" y="-66.3" font-family="Times,serif" font-size="14.00"> </text>
<polyline fill="none" stroke="black" points="719.726,-59.5 719.726,-81.5 "/>
<text text-anchor="middle" x="732.781" y="-66.3" font-family="Times,serif" font-size="14.00">G</text>
<polyline fill="none" stroke="black" points="745.836,-59.5 745.836,-81.5 "/>
<text text-anchor="middle" x="755.586" y="-66.3" font-family="Times,serif" font-size="14.00"> </text>
<polyline fill="none" stroke="black" points="765.336,-59.5 765.336,-81.5 "/>
<text text-anchor="middle" x="779.561" y="-66.3" font-family="Times,serif" font-size="14.00">M</text>
<polyline fill="none" stroke="black" points="793.785,-59.5 793.785,-81.5 "/>
<text text-anchor="middle" x="803.535" y="-66.3" font-family="Times,serif" font-size="14.00"> </text>
</g>
<!-- node1&#45;&gt;node2 -->
<g id="edge8" class="edge"><title>node1:f0&#45;&gt;node2</title>
<path fill="none" stroke="black" d="M1004.34,-129.5C919.835,-129.5 823.708,-102.008 772.017,-84.8792"/>
<polygon fill="black" stroke="black" points="772.882,-81.4774 762.288,-81.6028 770.648,-88.1114 772.882,-81.4774"/>
</g>
<!-- node7 -->
<g id="node7" class="node"><title>node7</title>
<polygon fill="none" stroke="black" points="1395.76,-59.5 1395.76,-81.5 1504.92,-81.5 1504.92,-59.5 1395.76,-59.5"/>
<text text-anchor="middle" x="1405.51" y="-66.3" font-family="Times,serif" font-size="14.00"> </text>
<polyline fill="none" stroke="black" points="1415.26,-59.5 1415.26,-81.5 "/>
<text text-anchor="middle" x="1427.53" y="-66.3" font-family="Times,serif" font-size="14.00">T</text>
<polyline fill="none" stroke="black" points="1439.81,-59.5 1439.81,-81.5 "/>
<text text-anchor="middle" x="1449.56" y="-66.3" font-family="Times,serif" font-size="14.00"> </text>
<polyline fill="none" stroke="black" points="1459.31,-59.5 1459.31,-81.5 "/>
<text text-anchor="middle" x="1472.36" y="-66.3" font-family="Times,serif" font-size="14.00">X</text>
<polyline fill="none" stroke="black" points="1485.42,-59.5 1485.42,-81.5 "/>
<text text-anchor="middle" x="1495.17" y="-66.3" font-family="Times,serif" font-size="14.00"> </text>
</g>
<!-- node1&#45;&gt;node7 -->
<g id="edge9" class="edge"><title>node1:f1&#45;&gt;node7</title>
<path fill="none" stroke="black" d="M1068.34,-129.5C1188.94,-129.5 1328.56,-100.891 1401,-83.859"/>
<polygon fill="black" stroke="black" points="1401.85,-87.2551 1410.77,-81.5366 1400.23,-80.445 1401.85,-87.2551"/>
</g>
<!-- node3 -->
<g id="node3" class="node"><title>node3</title>
<polygon fill="none" stroke="black" points="0,-0.5 0,-22.5 250.673,-22.5 250.673,-0.5 0,-0.5"/>
<text text-anchor="middle" x="9.75" y="-7.3" font-family="Times,serif" font-size="14.00"> </text>
<polyline fill="none" stroke="black" points="19.5,-0.5 19.5,-22.5 "/>
<text text-anchor="middle" x="67.7363" y="-7.3" font-family="Times,serif" font-size="14.00">A:[(1,1),(1,2)]</text>
<polyline fill="none" stroke="black" points="115.973,-0.5 115.973,-22.5 "/>
<text text-anchor="middle" x="125.723" y="-7.3" font-family="Times,serif" font-size="14.00"> </text>
<polyline fill="none" stroke="black" points="135.473,-0.5 135.473,-22.5 "/>
<text text-anchor="middle" x="183.323" y="-7.3" font-family="Times,serif" font-size="14.00">B:[(2,1),(2,2)]</text>
<polyline fill="none" stroke="black" points="231.173,-0.5 231.173,-22.5 "/>
<text text-anchor="middle" x="240.923" y="-7.3" font-family="Times,serif" font-size="14.00"> </text>
</g>
<!-- node2&#45;&gt;node3 -->
<g id="edge1" class="edge"><title>node2:f0&#45;&gt;node3</title>
<path fill="none" stroke="black" d="M654.336,-70.5C486.186,-70.5 289.752,-41.1851 190.238,-24.2373"/>
<polygon fill="black" stroke="black" points="190.781,-20.7794 180.333,-22.5366 189.596,-27.6785 190.781,-20.7794"/>
</g>
<!-- node4 -->
<g id="node4" class="node"><title>node4</title>
<polygon fill="none" stroke="black" points="268.893,-0.5 268.893,-22.5 571.78,-22.5 571.78,-0.5 268.893,-0.5"/>
<text text-anchor="middle" x="278.643" y="-7.3" font-family="Times,serif" font-size="14.00"> </text>
<polyline fill="none" stroke="black" points="288.393,-0.5 288.393,-22.5 "/>
<text text-anchor="middle" x="336.629" y="-7.3" font-family="Times,serif" font-size="14.00">D:[(3,1),(3,2)]</text>
<polyline fill="none" stroke="black" points="384.866,-0.5 384.866,-22.5 "/>
<text text-anchor="middle" x="394.616" y="-7.3" font-family="Times,serif" font-size="14.00"> </text>
<polyline fill="none" stroke="black" points="404.366,-0.5 404.366,-22.5 "/>
<text text-anchor="middle" x="436.661" y="-7.3" font-family="Times,serif" font-size="14.00">E:[(4,1)]</text>
<polyline fill="none" stroke="black" points="468.956,-0.5 468.956,-22.5 "/>
<text text-anchor="middle" x="478.706" y="-7.3" font-family="Times,serif" font-size="14.00"> </text>
<polyline fill="none" stroke="black" points="488.456,-0.5 488.456,-22.5 "/>
<text text-anchor="middle" x="520.368" y="-7.3" font-family="Times,serif" font-size="14.00">F:[(5,1)]</text>
<polyline fill="none" stroke="black" points="552.28,-0.5 552.28,-22.5 "/>
<text text-anchor="middle" x="562.03" y="-7.3" font-family="Times,serif" font-size="14.00"> </text>
</g>
<!-- node2&#45;&gt;node4 -->
<g id="edge2" class="edge"><title>node2:f1&#45;&gt;node4</title>
<path fill="none" stroke="black" d="M710.336,-59C710.336,-42.716 638.129,-31.105 565.775,-23.558"/>
<polygon fill="black" stroke="black" points="565.875,-20.0502 555.572,-22.52 565.167,-27.0143 565.875,-20.0502"/>
</g>
<!-- node5 -->
<g id="node5" class="node"><title>node5</title>
<polygon fill="none" stroke="black" points="589.9,-0.5 589.9,-22.5 920.773,-22.5 920.773,-0.5 589.9,-0.5"/>
<text text-anchor="middle" x="599.65" y="-7.3" font-family="Times,serif" font-size="14.00"> </text>
<polyline fill="none" stroke="black" points="609.4,-0.5 609.4,-22.5 "/>
<text text-anchor="middle" x="655.305" y="-7.3" font-family="Times,serif" font-size="14.00">J:[(5,1),(5,2)]</text>
<polyline fill="none" stroke="black" points="701.21,-0.5 701.21,-22.5 "/>
<text text-anchor="middle" x="710.96" y="-7.3" font-family="Times,serif" font-size="14.00"> </text>
<polyline fill="none" stroke="black" points="720.71,-0.5 720.71,-22.5 "/>
<text text-anchor="middle" x="768.947" y="-7.3" font-family="Times,serif" font-size="14.00">K:[(6,1),(6,2)]</text>
<polyline fill="none" stroke="black" points="817.183,-0.5 817.183,-22.5 "/>
<text text-anchor="middle" x="826.933" y="-7.3" font-family="Times,serif" font-size="14.00"> </text>
<polyline fill="none" stroke="black" points="836.683,-0.5 836.683,-22.5 "/>
<text text-anchor="middle" x="868.978" y="-7.3" font-family="Times,serif" font-size="14.00">L:[(7,1)]</text>
<polyline fill="none" stroke="black" points="901.273,-0.5 901.273,-22.5 "/>
<text text-anchor="middle" x="911.023" y="-7.3" font-family="Times,serif" font-size="14.00"> </text>
</g>
<!-- node2&#45;&gt;node5 -->
<g id="edge3" class="edge"><title>node2:f2&#45;&gt;node5</title>
<path fill="none" stroke="black" d="M755.336,-59C755.336,-50.4528 755.336,-41.0219 755.336,-32.9001"/>
<polygon fill="black" stroke="black" points="758.837,-32.8424 755.336,-22.8425 751.837,-32.8425 758.837,-32.8424"/>
</g>
<!-- node6 -->
<g id="node6" class="node"><title>node6</title>
<polygon fill="none" stroke="black" points="938.938,-0.5 938.938,-22.5 1129.73,-22.5 1129.73,-0.5 938.938,-0.5"/>
<text text-anchor="middle" x="948.688" y="-7.3" font-family="Times,serif" font-size="14.00"> </text>
<polyline fill="none" stroke="black" points="958.438,-0.5 958.438,-22.5 "/>
<text text-anchor="middle" x="991.512" y="-7.3" font-family="Times,serif" font-size="14.00">N:[(8,1)]</text>
<polyline fill="none" stroke="black" points="1024.59,-0.5 1024.59,-22.5 "/>
<text text-anchor="middle" x="1034.34" y="-7.3" font-family="Times,serif" font-size="14.00"> </text>
<polyline fill="none" stroke="black" points="1044.09,-0.5 1044.09,-22.5 "/>
<text text-anchor="middle" x="1077.16" y="-7.3" font-family="Times,serif" font-size="14.00">O:[(9,1)]</text>
<polyline fill="none" stroke="black" points="1110.23,-0.5 1110.23,-22.5 "/>
<text text-anchor="middle" x="1119.98" y="-7.3" font-family="Times,serif" font-size="14.00"> </text>
</g>
<!-- node2&#45;&gt;node6 -->
<g id="edge4" class="edge"><title>node2:f3&#45;&gt;node6</title>
<path fill="none" stroke="black" d="M814.336,-70.5C883.084,-70.5 960.042,-43.691 1002.27,-26.5263"/>
<polygon fill="black" stroke="black" points="1003.84,-29.6656 1011.73,-22.6028 1001.16,-23.1993 1003.84,-29.6656"/>
</g>
<!-- node8 -->
<g id="node8" class="node"><title>node8</title>
<polygon fill="none" stroke="black" points="1147.42,-0.5 1147.42,-22.5 1441.25,-22.5 1441.25,-0.5 1147.42,-0.5"/>
<text text-anchor="middle" x="1157.17" y="-7.3" font-family="Times,serif" font-size="14.00"> </text>
<polyline fill="none" stroke="black" points="1166.92,-0.5 1166.92,-22.5 "/>
<text text-anchor="middle" x="1203.49" y="-7.3" font-family="Times,serif" font-size="14.00">Q:[(10,1)]</text>
<polyline fill="none" stroke="black" points="1240.07,-0.5 1240.07,-22.5 "/>
<text text-anchor="middle" x="1249.82" y="-7.3" font-family="Times,serif" font-size="14.00"> </text>
<polyline fill="none" stroke="black" points="1259.57,-0.5 1259.57,-22.5 "/>
<text text-anchor="middle" x="1295.5" y="-7.3" font-family="Times,serif" font-size="14.00">R:[(11,1)]</text>
<polyline fill="none" stroke="black" points="1331.43,-0.5 1331.43,-22.5 "/>
<text text-anchor="middle" x="1341.18" y="-7.3" font-family="Times,serif" font-size="14.00"> </text>
<polyline fill="none" stroke="black" points="1350.93,-0.5 1350.93,-22.5 "/>
<text text-anchor="middle" x="1386.34" y="-7.3" font-family="Times,serif" font-size="14.00">S:[(12,1)]</text>
<polyline fill="none" stroke="black" points="1421.75,-0.5 1421.75,-22.5 "/>
<text text-anchor="middle" x="1431.5" y="-7.3" font-family="Times,serif" font-size="14.00"> </text>
</g>
<!-- node7&#45;&gt;node8 -->
<g id="edge5" class="edge"><title>node7:f0&#45;&gt;node8</title>
<path fill="none" stroke="black" d="M1394.34,-70.5C1361.47,-70.5 1329.73,-46.7648 1311.13,-29.6616"/>
<polygon fill="black" stroke="black" points="1313.41,-27.0004 1303.77,-22.6028 1308.56,-32.0516 1313.41,-27.0004"/>
</g>
<!-- node9 -->
<g id="node9" class="node"><title>node9</title>
<polygon fill="none" stroke="black" points="1459.45,-0.5 1459.45,-22.5 1663.22,-22.5 1663.22,-0.5 1459.45,-0.5"/>
<text text-anchor="middle" x="1469.2" y="-7.3" font-family="Times,serif" font-size="14.00"> </text>
<polyline fill="none" stroke="black" points="1478.95,-0.5 1478.95,-22.5 "/>
<text text-anchor="middle" x="1515.53" y="-7.3" font-family="Times,serif" font-size="14.00">U:[(13,1)]</text>
<polyline fill="none" stroke="black" points="1552.1,-0.5 1552.1,-22.5 "/>
<text text-anchor="middle" x="1561.85" y="-7.3" font-family="Times,serif" font-size="14.00"> </text>
<polyline fill="none" stroke="black" points="1571.6,-0.5 1571.6,-22.5 "/>
<text text-anchor="middle" x="1607.66" y="-7.3" font-family="Times,serif" font-size="14.00">V:[(14,1)]</text>
<polyline fill="none" stroke="black" points="1643.72,-0.5 1643.72,-22.5 "/>
<text text-anchor="middle" x="1653.47" y="-7.3" font-family="Times,serif" font-size="14.00"> </text>
</g>
<!-- node7&#45;&gt;node9 -->
<g id="edge6" class="edge"><title>node7:f1&#45;&gt;node9</title>
<path fill="none" stroke="black" d="M1449.34,-59C1449.34,-44.1177 1457.88,-33.9087 1470.24,-26.9269"/>
<polygon fill="black" stroke="black" points="1471.82,-30.0485 1479.35,-22.5912 1468.82,-23.7276 1471.82,-30.0485"/>
</g>
<!-- node10 -->
<g id="node10" class="node"><title>node10</title>
<polygon fill="none" stroke="black" points="1681.36,-0.5 1681.36,-22.5 1883.31,-22.5 1883.31,-0.5 1681.36,-0.5"/>
<text text-anchor="middle" x="1691.11" y="-7.3" font-family="Times,serif" font-size="14.00"> </text>
<polyline fill="none" stroke="black" points="1700.86,-0.5 1700.86,-22.5 "/>
<text text-anchor="middle" x="1736.79" y="-7.3" font-family="Times,serif" font-size="14.00">Y:[(15,1)]</text>
<polyline fill="none" stroke="black" points="1772.72,-0.5 1772.72,-22.5 "/>
<text text-anchor="middle" x="1782.47" y="-7.3" font-family="Times,serif" font-size="14.00"> </text>
<polyline fill="none" stroke="black" points="1792.22,-0.5 1792.22,-22.5 "/>
<text text-anchor="middle" x="1828.02" y="-7.3" font-family="Times,serif" font-size="14.00">Z:[(16,1)]</text>
<polyline fill="none" stroke="black" points="1863.81,-0.5 1863.81,-22.5 "/>
<text text-anchor="middle" x="1873.56" y="-7.3" font-family="Times,serif" font-size="14.00"> </text>
</g>
<!-- node7&#45;&gt;node10 -->
<g id="edge7" class="edge"><title>node7:f2&#45;&gt;node10</title>
<path fill="none" stroke="black" d="M1506.34,-70.5C1592.81,-70.5 1691.34,-42.8933 1744.12,-25.7723"/>
<polygon fill="black" stroke="black" points="1745.34,-29.0561 1753.75,-22.6028 1743.15,-22.4076 1745.34,-29.0561"/>
</g>
</g>
</svg>
